# xmcd
#
# Track frame offsets:
#	150
#	12292
#	28334
#	43811
#	58969
#	82247
#	102910
#	116974
#	133430
#	139808
#	161342
#	180754
#	211048
#	234486
#
# Disc length: 3281 seconds
#
# Revision: 1
# Processed by: cddbd v1.5.2PL0 Copyright (c) Steve Scherf et al.
# Submitted via: audiograbber 1.83.01
#
DISCID=c90ccf0e
DTITLE=The Dubliners - All the great Songs Live - CD 1
DYEAR=2007
DGENRE=
TTITLE0=The Fermony Lassies - Sporting Paddy
TTITLE1=The Black Velvet Band
TTITLE2=The Spanish Lady
TTITLE3=The Ferryman
TTITLE4=The Rare Auld Times
TTITLE5=The Belfast Hornpipe - The Swallows´s Tale
TTITLE6=The Pool Song
TTITLE7=When the Boys Come Rolling Home 
TTITLE8=Luke´s 21st Anniversary Poem
TTITLE9=The Dublin Minstrel
TTITLE10=Paddy on the Railway
TTITLE11=I Wish I Had Someone To Love Me
TTITLE12=The Maid Behind the Bar - The Boyne Hunt - The Shskeen - The High Reel
TTITLE13=I´ll Tell Me Ma
EXTD=
EXTT0=
EXTT1=
EXTT2=
EXTT3=
EXTT4=
EXTT5=
EXTT6=
EXTT7=
EXTT8=
EXTT9=
EXTT10=
EXTT11=
EXTT12=
EXTT13=
PLAYORDER=
